<svg xmlns="http://www.w3.org/2000/svg" aria-label="Slack" role="img" viewBox="0 0 512 512"><rect width="512" height="512" fill="#fff" rx="15%"/><path fill="#ecb32d" d="M270 66a34 34 0 0 0-22 43l88 272a34 34 0 0 0 42 21c18-5 29-24 23-42L313 88a34 34 0 0 0-43-22z"/><path fill="#63c1a0" d="M176 132a34 34 0 0 0-65 21l88 272a34 34 0 0 0 42 21c18-5 29-24 23-42l-88-272z"/><path fill="#e01a59" d="M424 313a34 34 0 1 0-21-65l-272 89a34 34 0 0 0-21 41c5 18 25 29 42 23l272-88z"/><path fill="#331433" d="M188 390l65-21-21-65-65 21z"/><path fill="#d62027" d="M325 345l65-21-21-65-65 21z"/><path fill="#89d3df" d="M380 176a34 34 0 1 0-21-65L87 199a34 34 0 0 0-21 42c5 18 24 29 42 23l272-88z"/><path fill="#258b74" d="M143 253l65-21-21-65-65 21 21 65z"/><path fill="#819c3c" d="M280 209l65-21-21-66-65 21z"/></svg>